<?xml version="1.0" encoding="UTF-8" standalone="no"?>
<svg width="40px" height="40px" viewBox="0 0 40 40" version="1.1" xmlns="http://www.w3.org/2000/svg" xmlns:xlink="http://www.w3.org/1999/xlink">
    <g id="Page-1" stroke="none" stroke-width="1" fill="none" fill-rule="evenodd">
        <g id="away-state-new" fill="#FFFFFF">
            <g id="away-state" transform="translate(7.000000, 6.000000)">
                <g id="Group" transform="translate(0.000000, -0.000000)">
                    <path d="M11.7580645,17.4193548 L11.4677419,15.9677419 L11.4677419,2.17741935 L13.5725806,0 L15.5322581,2.17741935 L15.5322581,15.9677419 L15.2419355,17.4193548 L15.2419355,23.4428235 C15.2419355,24.565609 14.3301544,25.4758065 13.5,25.4758065 L15.2419355,25.4758065 C14.2798911,25.4758065 12.5882189,25.4758065 11.7580645,25.4758065 L13.5,25.4758065 C12.5379556,25.4758065 11.7580645,24.5672897 11.7580645,23.4428235 L11.7580645,17.4193548 Z" id="Rectangle"></path>
                    <path d="M26.2506938,19.2364896 C26.6886885,19.4027238 27,19.8262969 27,20.3225806 C27,20.9639436 26.4800726,21.483871 25.8387097,21.483871 C25.7422707,21.483871 25.6485774,21.4721155 25.5589845,21.4499593 L25.5483871,21.483871 L14.8064516,17.7096774 L14.8064516,9.58064516 L26.2741935,19.1612903 L26.2506938,19.2364896 Z" id="wing"></path>
                    <path d="M11.4442422,19.2364896 C11.8822369,19.4027238 12.1935484,19.8262969 12.1935484,20.3225806 C12.1935484,20.9639436 11.673621,21.483871 11.0322581,21.483871 C10.9358191,21.483871 10.8421258,21.4721155 10.7525329,21.4499593 L10.7419355,21.483871 L0,17.7096774 L0,9.58064516 L11.4677419,19.1612903 L11.4442422,19.2364896 Z" id="wing" transform="translate(6.096774, 15.532258) scale(-1, 1) translate(-6.096774, -15.532258) "></path>
                    <path d="M13.8351871,25.6153047 C14.2508368,25.7685768 14.547235,26.168223 14.547235,26.6370968 C14.547235,27.2383745 14.0598031,27.7258065 13.4585253,27.7258065 C13.4016864,27.7258065 13.3458648,27.7214508 13.2913761,27.713055 L13.2718894,27.7882247 L7.69354839,25.4032258 L8.12903226,21.3387097 L13.8525346,25.5483871 L13.8351871,25.6153047 Z" id="tail" transform="translate(11.120392, 24.563467) scale(-1, 1) translate(-11.120392, -24.563467) "></path>
                    <path d="M18.4517001,25.5921371 C18.9037347,25.7245243 19.233871,26.1422568 19.233871,26.6370968 C19.233871,27.2383745 18.746439,27.7258065 18.1451613,27.7258065 C18.0739844,27.7258065 18.0044028,27.7189761 17.9370362,27.7059351 L17.9170507,27.7880184 L12.3387097,25.4032258 L12.7741935,21.3387097 L18.4976959,25.4032258 L18.4517001,25.5921371 Z" id="tail"></path>
                </g>
            </g>
        </g>
    </g>
</svg>